# xmcd
#
# Track frame offsets:
# 150
# 28818
# 44534
# 58080
# 67888
# 82928
# 105747
# 123747
# 193823
# 237649
# 268453
# 322007
#
# Disc length: 4780 seconds
#
#
# Revision: 0
# Processed by: cddbd v1.5.1PL2 Copyright (c) Steve Scherf et al.
# Submitted via: FreeRIP 2.90 
#
DISCID=ba12aa0c
DTITLE=USC Choirs - Fall Concert 05
DYEAR=2005
DGENRE=Chorus
TTITLE0=Debussy Tois Chansons
TTITLE1=Hawley Io Son La Primavera
TTITLE2=Barber To Be Sung on the Water
TTITLE3=Starer It is an Easy Thing
TTITLE4=Davies Noah's Prayer
TTITLE5=Faure Cantique de Jean Racine
TTITLE6=Singer Psalm 117
TTITLE7=Bach Cantata 150
TTITLE8=Rutter Fancies
TTITLE9=Kone Aspects of Love
TTITLE10=Lars Johan Werle
TTITLE11=Mechem Everyone Sang
EXTD=Newman Recital Hall\nOctober 21, 2005\nDrs. Solomon 1-8\nDenning 9-12, Conductors\n
EXTT0=
EXTT1=
EXTT2=
EXTT3=
EXTT4=
EXTT5=
EXTT6=
EXTT7=
EXTT8=
EXTT9=
EXTT10=
EXTT11=
PLAYORDER=
